<svg xmlns="http://www.w3.org/2000/svg" xmlns:xlink="http://www.w3.org/1999/xlink" aria-hidden="true" focusable="false" width="1em" height="1em" style="-ms-transform: rotate(360deg); -webkit-transform: rotate(360deg); transform: rotate(360deg);" preserveAspectRatio="xMidYMid meet" viewBox="0 0 36 36"><path d="M34 13V9a2 2 0 0 0-2-2H4a2 2 0 0 0-2 2v4h2v4H2v10a2 2 0 0 0 2 2h12.61v-3.45H19V29h13a2 2 0 0 0 2-2V17h-2v-4zm-22 7H8v-8h4zm8 0h-4v-8h4zm8 0h-4v-8h4z" class="clr-i-solid clr-i-solid-path-1" fill="#fff"/></svg>